<svg xmlns="http://www.w3.org/2000/svg" viewBox="0 0 720 208" role="img" aria-labelledby="title desc">
<title id="title">Montessori Virtual Room</title>
<desc id="desc">The Pink Tower in an open room, with a softly rounded Montessori Virtual Room wordmark.</desc>
<rect width="720" height="208" rx="28" fill="#f5f1e6"/>
<g transform="translate(34 32) scale(1.125)">
  <rect width="128" height="128" rx="26" fill="#f5f1e6"/>
  <path d="M20 41 64 16 108 41V90L64 115 20 90Z" fill="#e6e9dc"/>
  <path d="M20 41 64 16V65L20 90Z" fill="#c8d2bc"/>
  <path d="M64 16 108 41V90L64 65Z" fill="#dce2cf"/>
  <path d="M20 90 64 65 108 90 64 115Z" fill="#eadbc0"/>
  <path d="M20 70V41L64 16 108 41V70M64 16V37" fill="none" stroke="#4d6549" stroke-width="4" stroke-linecap="round" stroke-linejoin="round"/>
  <path d="M20 90 64 115 108 90" fill="none" stroke="#4d6549" stroke-width="4" stroke-linecap="round" stroke-linejoin="round"/>
  <path d="M46 76 64 86V109L46 99Z" fill="#c47784"/>
  <path d="M64 86 82 76V99L64 109Z" fill="#a95f70"/>
  <path d="M46 76 64 66 82 76 64 86Z" fill="#e0a6af"/>
  <path d="M52 60 64 67V83L52 76Z" fill="#cd8591"/>
  <path d="M64 67 76 60V76L64 83Z" fill="#b16a79"/>
  <path d="M52 60 64 53 76 60 64 67Z" fill="#e6b3bb"/>
  <path d="M57 50 64 54V64L57 60Z" fill="#d4909c"/>
  <path d="M64 54 71 50V60L64 64Z" fill="#bb7584"/>
  <path d="M57 50 64 46 71 50 64 54Z" fill="#ecc1c6"/>
</g>
<path d="M46.92817687988281 0V496H135.12864685058594L143.86996459960938 416.63792419433594H146.86996459960938Q171.06826782226562 461.75 212.00936889648438 484.875Q252.95046997070312 508 303.6256866455078 508Q342.102317732994 508 373.5522422405204 497.1637725830078Q405.0021667480469 486.3275451660156 428.5840530395508 464.75138092041016Q452.1659393310547 443.1752166748047 466.8756866455078 409.47119140625H469.8756866455078Q496.947509765625 457.20544958114624 539.8325729370117 482.6027247905731Q582.7176361083984 508 642.2951812744141 508Q699.3526000976562 508 741.8526000976562 483.58050537109375Q784.3526000976562 459.1610107421875 808.0077896118164 409.823489926896Q831.6629791259766 360.4859691116045 831.6629791259766 286.322021484375V0H732.6637725830078V276.2186279296875Q732.6637725830078 348.43856010707555 703.8811538696289 385.6908681883034Q675.09853515625 422.94317626953125 616.591552734375 422.94317626953125Q579.2392481877254 422.94317626953125 550.6676954416128 406.3819762638637Q522.0961426955002 389.82077625819613 505.69566198495716 356.14046015058244Q489.29518127441406 322.46014404296875 489.29518127441406 271.322021484375V0H389.47987365722656V276.2186279296875Q389.47987365722656 348.43856010707555 360.69622597918413 385.6908681883034Q331.9125783011417 422.94317626953125 275.90553662600934 422.94317626953125Q241.57142639160156 422.94317626953125 212.18626403808594 403.3224182128906Q182.8011016845703 383.70166015625 164.86424255371094 346.96014404296875Q146.92738342285156 310.2186279296875 146.92738342285156 256.6322021484375V0Z" transform="translate(205.000 110) scale(0.07300 -0.07300)" fill="#344f3d"/>
<path d="M280.13204877502363 -12Q209.68093872070312 -12 153.12924194335938 20.3677978515625Q96.57754516601562 52.735595703125 63.709747314453125 111.29523065136607Q30.841949462890625 169.85486559960714 30.841949462890625 247.9090439399471Q30.841949462890625 326.264404296875 64.1177978515625 384.8563537597656Q97.39364624023438 443.44830322265625 154.33323540320765 475.7241516113281Q211.2728245661809 508 281.72174170637305 508Q352.4165344238281 508 408.9682312011719 475.7241516113281Q465.5199279785156 443.44830322265625 498.3877258300781 384.9016123804553Q531.2555236816406 326.3549215382543 531.2555236816406 247.9311289026204Q531.2555236816406 169.735595703125 497.97967529296875 111.235595703125Q464.7038269042969 52.735595703125 407.7664456754118 20.3677978515625Q350.8290644465266 -12 280.13204877502363 -12ZM280.18429297143285 69.69178771972656Q319.9224548339844 69.69178771972656 353.6122741699219 89.43468475341797Q387.3020935058594 109.17758178710938 408.187255859375 148.7071623611493Q429.0724182128906 188.23674293518923 429.0724182128906 248.00597712423948Q429.0724182128906 308.05310947080204 408.5953063964844 347.74380174467836Q388.1181945800781 387.4344940185547 354.4182832299209 406.87135314941406Q320.7183718797637 426.30821228027344 281.8667865590607 426.30821228027344Q243.17501831054688 426.30821228027344 208.98519897460938 406.87135314941406Q174.79537963867188 387.4344940185547 153.91021728515625 347.71880174467833Q133.02505493164062 308.00310947080203 133.02505493164062 247.96166050673702Q133.02505493164062 188.21752173499723 153.91021728515625 148.69755176105332Q174.79537963867188 109.17758178710938 208.16909790039062 89.43468475341797Q241.54281616210938 69.69178771972656 280.18429297143285 69.69178771972656Z" transform="translate(266.456 110) scale(0.07300 -0.07300)" fill="#344f3d"/>
<path d="M46.92817687988281 0V496H134.43902587890625L142.9303436279297 415.02012634277344H145.9303436279297Q170.97059631347656 457.88792419433594 213.35279846191406 482.94396209716797Q255.73500061035156 508 315.1085205078125 508Q373.9877624511719 508 416.9877624511719 483.58050537109375Q459.9877624511719 459.1610107421875 483.31392669677734 409.8334655761719Q506.6400909423828 360.50592041015625 506.6400909423828 286.322021484375V0H406.8247833251953V276.2186279296875Q406.8247833251953 348.437255859375 376.3074188232422 385.6902160644531Q345.79005432128906 422.94317626953125 286.1807403564453 422.94317626953125Q245.93922424316406 422.94317626953125 214.55406188964844 403.3224182128906Q183.1688995361328 383.70166015625 165.0481414794922 346.96014404296875Q146.92738342285156 310.2186279296875 146.92738342285156 256.6322021484375V0Z" transform="translate(305.282 110) scale(0.07300 -0.07300)" fill="#344f3d"/>
<path d="M252.68922424316406 0Q205.2985382080078 0 170.18370056152344 14.827545166015625Q135.06886291503906 29.65509033203125 116.18962097167969 64.71823120117188Q97.31037902832031 99.7813720703125 97.31037902832031 159.7237548828125V418.67601013183594H11.678176879882812V496H97.31037902832031L108.98342522224132 619.9652709960938H197.34022828175011V496H338.89601135253906V418.67601013183594H197.30958557128906V159.35595703125Q197.30958557128906 113.34135437011719 215.0222930908203 97.24072265625Q232.73500061035156 81.14009094238281 277.05702209472656 81.14009094238281H332.5511016845703V0Z" transform="translate(343.013 110) scale(0.07300 -0.07300)" fill="#344f3d"/>
<path d="M279.6233215332031 -12Q206.96823120117188 -12 150.86483764648438 20.408050537109375Q94.76144409179688 52.81610107421875 62.80169677734375 111.04025268554688Q30.841949462890625 169.264404296875 30.841949462890625 246.52880859375Q30.841949462890625 325.1610107421875 62.30169677734375 383.6207580566406Q93.76144409179688 442.08050537109375 150.18093872070312 475.0402526855469Q206.60043334960938 508 281.0716247558594 508Q354.4394226074219 508 407.81866455078125 475.5919494628906Q461.1979064941406 443.18389892578125 490.39324951171875 389.8563537597656Q519.5885925292969 336.52880859375 519.5885925292969 271.9542236328125Q519.5885925292969 261.9542236328125 519.4966430664062 250.17837524414062Q519.4046936035156 238.40252685546875 518.2207946777344 224.58642578125H104.32418823242188V295.1033935546875H419.6698913574219Q416.6698913574219 357.93133544921875 377.572021484375 393.32518005371094Q338.4741516113281 428.7190246582031 279.8072204589844 428.7190246582031Q239.38180541992188 428.7190246582031 204.86444091796875 410.8224182128906Q170.34707641601562 392.9258117675781 149.5941162109375 357.2547378540039Q128.84115600585938 321.5836639404297 128.84115600585938 267.13812255859375V238.77032470703125Q128.84115600585938 183.7786102294922 149.63436889648438 146.36463928222656Q170.42758178710938 108.95066833496094 205.06708526611328 89.82991027832031Q239.7065887451172 70.70915222167969 279.2555236816406 70.70915222167969Q326.4741516113281 70.70915222167969 358.3478698730469 92.31846618652344Q390.2215881347656 113.92778015136719 405.3020935058594 150.9423828125H505.4046936035156Q492.0368957519531 104.39068603515625 461.02545166015625 67.65509033203125Q430.0140075683594 30.91949462890625 384.4106140136719 9.459747314453125Q338.8072204589844 -12 279.6233215332031 -12Z" transform="translate(366.582 110) scale(0.07300 -0.07300)" fill="#344f3d"/>
<path d="M243.5773468017578 -12Q182.3705596923828 -12 134.1752166748047 8.959747314453125Q85.97987365722656 29.91949462890625 56.92817687988281 67.69534301757812Q27.876480102539062 105.47119140625 21.428176879882812 155.91949462890625H122.69178771972656Q128.32398986816406 132.92225646972656 142.4044952392578 112.11898040771484Q156.48500061035156 91.31570434570312 181.68626403808594 78.37884521484375Q206.8875274658203 65.44198608398438 243.65785217285156 65.44198608398438Q276.8993682861328 65.44198608398438 297.95836639404297 75.02249145507812Q319.0173645019531 84.60299682617188 329.4039077758789 100.44790649414062Q339.7904510498047 116.29281616210938 339.7904510498047 134.69810485839844Q339.7904510498047 159.3074188232422 325.72000885009766 173.5503158569336Q311.6495666503906 187.793212890625 284.8147201538086 197.67975616455078Q257.97987365722656 207.56629943847656 221.18666076660156 217.2186279296875Q190.45106506347656 225.60655212402344 158.62351989746094 235.91259002685547Q126.79597473144531 246.2186279296875 100.56037902832031 261.41259002685547Q74.32478332519531 276.60655212402344 58.36503601074219 300.68843841552734Q42.40528869628906 324.77032470703125 42.40528869628906 360.7300720214844Q42.40528869628906 402.2616424560547 65.04893493652344 435.5791244506836Q87.69258117675781 468.8966064453125 129.75572204589844 488.44830322265625Q171.81886291503906 508 229.5773468017578 508Q311.8875274658203 508 363.30702209472656 468.3563537597656Q414.7265167236328 428.71270751953125 423.0943145751953 355.264404296875H326.30189514160156Q321.93409729003906 391.29913330078125 296.64088439941406 410.8366241455078Q271.34767150878906 430.3741149902344 228.76124572753906 430.3741149902344Q186.2553253173828 430.3741149902344 163.69632720947266 412.69297790527344Q141.1373291015625 395.0118408203125 141.1373291015625 368.30189514160156Q141.1373291015625 350.34490966796875 153.6373291015625 338.0503158569336Q166.1373291015625 325.75572204589844 191.62588500976562 316.8893051147461Q217.11444091796875 308.02288818359375 254.5197296142578 297.1464080810547Q303.11444091796875 283.96250915527344 345.1560745239258 267.84037017822266Q387.1977081298828 251.71823120117188 413.6057586669922 224.0142059326172Q440.01380920410156 196.3101806640625 440.01380920410156 146.7786102294922Q441.01380920410156 100.61483764648438 416.77821350097656 64.66515350341797Q392.54261779785156 28.715469360351562 348.57142639160156 8.357734680175781Q304.60023498535156 -12 243.5773468017578 -12Z" transform="translate(404.167 110) scale(0.07300 -0.07300)" fill="#344f3d"/>
<path d="M243.5773468017578 -12Q182.3705596923828 -12 134.1752166748047 8.959747314453125Q85.97987365722656 29.91949462890625 56.92817687988281 67.69534301757812Q27.876480102539062 105.47119140625 21.428176879882812 155.91949462890625H122.69178771972656Q128.32398986816406 132.92225646972656 142.4044952392578 112.11898040771484Q156.48500061035156 91.31570434570312 181.68626403808594 78.37884521484375Q206.8875274658203 65.44198608398438 243.65785217285156 65.44198608398438Q276.8993682861328 65.44198608398438 297.95836639404297 75.02249145507812Q319.0173645019531 84.60299682617188 329.4039077758789 100.44790649414062Q339.7904510498047 116.29281616210938 339.7904510498047 134.69810485839844Q339.7904510498047 159.3074188232422 325.72000885009766 173.5503158569336Q311.6495666503906 187.793212890625 284.8147201538086 197.67975616455078Q257.97987365722656 207.56629943847656 221.18666076660156 217.2186279296875Q190.45106506347656 225.60655212402344 158.62351989746094 235.91259002685547Q126.79597473144531 246.2186279296875 100.56037902832031 261.41259002685547Q74.32478332519531 276.60655212402344 58.36503601074219 300.68843841552734Q42.40528869628906 324.77032470703125 42.40528869628906 360.7300720214844Q42.40528869628906 402.2616424560547 65.04893493652344 435.5791244506836Q87.69258117675781 468.8966064453125 129.75572204589844 488.44830322265625Q171.81886291503906 508 229.5773468017578 508Q311.8875274658203 508 363.30702209472656 468.3563537597656Q414.7265167236328 428.71270751953125 423.0943145751953 355.264404296875H326.30189514160156Q321.93409729003906 391.29913330078125 296.64088439941406 410.8366241455078Q271.34767150878906 430.3741149902344 228.76124572753906 430.3741149902344Q186.2553253173828 430.3741149902344 163.69632720947266 412.69297790527344Q141.1373291015625 395.0118408203125 141.1373291015625 368.30189514160156Q141.1373291015625 350.34490966796875 153.6373291015625 338.0503158569336Q166.1373291015625 325.75572204589844 191.62588500976562 316.8893051147461Q217.11444091796875 308.02288818359375 254.5197296142578 297.1464080810547Q303.11444091796875 283.96250915527344 345.1560745239258 267.84037017822266Q387.1977081298828 251.71823120117188 413.6057586669922 224.0142059326172Q440.01380920410156 196.3101806640625 440.01380920410156 146.7786102294922Q441.01380920410156 100.61483764648438 416.77821350097656 64.66515350341797Q392.54261779785156 28.715469360351562 348.57142639160156 8.357734680175781Q304.60023498535156 -12 243.5773468017578 -12Z" transform="translate(436.058 110) scale(0.07300 -0.07300)" fill="#344f3d"/>
<path d="M280.13204877502363 -12Q209.68093872070312 -12 153.12924194335938 20.3677978515625Q96.57754516601562 52.735595703125 63.709747314453125 111.29523065136607Q30.841949462890625 169.85486559960714 30.841949462890625 247.9090439399471Q30.841949462890625 326.264404296875 64.1177978515625 384.8563537597656Q97.39364624023438 443.44830322265625 154.33323540320765 475.7241516113281Q211.2728245661809 508 281.72174170637305 508Q352.4165344238281 508 408.9682312011719 475.7241516113281Q465.5199279785156 443.44830322265625 498.3877258300781 384.9016123804553Q531.2555236816406 326.3549215382543 531.2555236816406 247.9311289026204Q531.2555236816406 169.735595703125 497.97967529296875 111.235595703125Q464.7038269042969 52.735595703125 407.7664456754118 20.3677978515625Q350.8290644465266 -12 280.13204877502363 -12ZM280.18429297143285 69.69178771972656Q319.9224548339844 69.69178771972656 353.6122741699219 89.43468475341797Q387.3020935058594 109.17758178710938 408.187255859375 148.7071623611493Q429.0724182128906 188.23674293518923 429.0724182128906 248.00597712423948Q429.0724182128906 308.05310947080204 408.5953063964844 347.74380174467836Q388.1181945800781 387.4344940185547 354.4182832299209 406.87135314941406Q320.7183718797637 426.30821228027344 281.8667865590607 426.30821228027344Q243.17501831054688 426.30821228027344 208.98519897460938 406.87135314941406Q174.79537963867188 387.4344940185547 153.91021728515625 347.71880174467833Q133.02505493164062 308.00310947080203 133.02505493164062 247.96166050673702Q133.02505493164062 188.21752173499723 153.91021728515625 148.69755176105332Q174.79537963867188 109.17758178710938 208.16909790039062 89.43468475341797Q241.54281616210938 69.69178771972656 280.18429297143285 69.69178771972656Z" transform="translate(467.949 110) scale(0.07300 -0.07300)" fill="#344f3d"/>
<path d="M46.92817687988281 0V496H134.53097534179688L143.56826782226562 391.0919494628906H146.56826782226562Q168.8125457763672 439.5402526855469 193.81826782226562 464.68824005126953Q218.82398986816406 489.8362274169922 251.81678771972656 498.9181137084961Q284.80958557128906 508 330.08839416503906 508V402.89739990234375H303.2868957519531Q266.55406188964844 402.89739990234375 237.14739227294922 393.63299560546875Q207.74072265625 384.36859130859375 187.87430572509766 365.67601013183594Q168.0078887939453 346.9834289550781 157.46763610839844 317.16870880126953Q146.92738342285156 287.35398864746094 146.92738342285156 245.6412811279297V0Z" transform="translate(506.775 110) scale(0.07300 -0.07300)" fill="#344f3d"/>
<path d="M61.238555908203125 0V496H161.23776245117188V0ZM111.33010864257812 586.2103424072266Q82.65213012695312 586.2103424072266 63.73125457763672 604.5395577529381Q44.81037902832031 622.8687730986496 44.81037902832031 650.5232849121094Q44.81037902832031 677.4857940673828 63.599341688484984 695.7428970336914Q82.38830434864965 714 111.33010864257812 714Q139.37588500976562 714 158.39877319335938 695.7428970336914Q177.42166137695312 677.4857940673828 177.42166137695312 650.2172470092773Q177.42166137695312 623.1325988769531 158.39877319335938 604.6714706420898Q139.37588500976562 586.2103424072266 111.33010864257812 586.2103424072266Z" transform="translate(529.395 110) scale(0.07300 -0.07300)" fill="#344f3d"/>
<path d="M249.00888061523438 0 8.652328491210938 700H115.36128234863281L323.15765380859375 77.80702209472656H326.15765380859375L531.6838989257812 700H635.7663726806641L397.8581237792969 0Z" transform="translate(211.000 149) scale(0.01800 -0.01800)" fill="#687b60"/>
<path d="M51.69830322265625 0V700H151.697509765625V0Z" transform="translate(227.792 149) scale(0.01800 -0.01800)" fill="#687b60"/>
<path d="M51.69830322265625 0V700H288.9161376953125Q371.6517333984375 700 424.6631774902344 672.0402526855469Q477.67462158203125 644.0805053710938 503.3182678222656 597.3449096679688Q528.9619140625 550.6093139648438 528.9619140625 492.0576171875Q528.9619140625 436.0576171875 503.1860656738281 388.5978698730469Q477.41021728515625 341.13812255859375 423.67462158203125 312.6783752441406Q369.93902587890625 284.2186279296875 285.6517333984375 284.2186279296875H151.697509765625V0ZM419.49151611328125 0 268.6177978515625 311.34490966796875H378.98480224609375L535.7780151367188 0ZM151.697509765625 360.33306884765625H282.1805419921875Q356.2957763671875 360.33306884765625 391.1292419433594 396.4826354980469Q425.96270751953125 432.6322021484375 425.96270751953125 489.9542236328125Q425.96270751953125 547.7245483398438 391.9453430175781 581.8338623046875Q357.927978515625 615.9431762695312 281.36444091796875 615.9431762695312H151.697509765625Z" transform="translate(236.646 149) scale(0.01800 -0.01800)" fill="#687b60"/>
<path d="M218.37549843351204 0V618.494873046875H10.770126342773438V700H525.8269500732422V618.494873046875H318.22157798250356V0Z" transform="translate(251.908 149) scale(0.01800 -0.01800)" fill="#687b60"/>
<path d="M311.28709411621094 -12Q237.6320037841797 -12 177.44672393798828 17.55169677734375Q117.26144409179688 47.1033935546875 81.92383575439453 107.52288818359375Q46.58622741699219 167.9423828125 46.58622741699219 261.677978515625V700H146.58543395996094V260.677978515625Q146.58543395996094 197.64324951171875 167.4303436279297 157.12588500976562Q188.27525329589844 116.6085205078125 225.9765167236328 97.43606567382812Q263.6777801513672 78.26361083984375 313.4709930419922 78.26361083984375Q364.2642059326172 78.26361083984375 401.1493682861328 97.43606567382812Q438.03453063964844 116.6085205078125 458.56333923339844 157.12588500976562Q479.09214782714844 197.64324951171875 479.09214782714844 260.677978515625V700H579.0913543701172V261.677978515625Q579.0913543701172 167.9423828125 543.0799102783203 107.52288818359375Q507.06846618652344 47.1033935546875 446.4133758544922 17.55169677734375Q385.75828552246094 -12 311.28709411621094 -12Z" transform="translate(266.774 149) scale(0.01800 -0.01800)" fill="#687b60"/>
<path d="M10.606353759765625 0 250.1726531982422 700H396.4500732421875L633.3640441894531 0H527.5893827526775L324.6633758544922 619.3883209228516H321.6633758544922L115.30096617439725 0ZM126.95126342773438 203.3192596435547 154.62924194335938 283.0887908935547H483.9504699707031L511.4445495605469 203.3192596435547Z" transform="translate(283.242 149) scale(0.01800 -0.01800)" fill="#687b60"/>
<path d="M51.69830322265625 0V700H151.697509765625V78.95343017578125H471.812744140625V0Z" transform="translate(300.034 149) scale(0.01800 -0.01800)" fill="#687b60"/>
<path d="M51.69830322265625 0V700H288.9161376953125Q371.6517333984375 700 424.6631774902344 672.0402526855469Q477.67462158203125 644.0805053710938 503.3182678222656 597.3449096679688Q528.9619140625 550.6093139648438 528.9619140625 492.0576171875Q528.9619140625 436.0576171875 503.1860656738281 388.5978698730469Q477.41021728515625 341.13812255859375 423.67462158203125 312.6783752441406Q369.93902587890625 284.2186279296875 285.6517333984375 284.2186279296875H151.697509765625V0ZM419.49151611328125 0 268.6177978515625 311.34490966796875H378.98480224609375L535.7780151367188 0ZM151.697509765625 360.33306884765625H282.1805419921875Q356.2957763671875 360.33306884765625 391.1292419433594 396.4826354980469Q425.96270751953125 432.6322021484375 425.96270751953125 489.9542236328125Q425.96270751953125 547.7245483398438 391.9453430175781 581.8338623046875Q357.927978515625 615.9431762695312 281.36444091796875 615.9431762695312H151.697509765625Z" transform="translate(323.178 149) scale(0.01800 -0.01800)" fill="#687b60"/>
<path d="M384.4272066863786 -12Q281.84292726935485 -12 203.79590357264507 33.591949462890625Q125.7488798759353 79.18389892578125 81.78249047507703 160.68389892578125Q37.81610107421875 242.18389892578125 37.81610107421875 350Q37.81610107421875 457 81.78249047507703 538.5Q125.7488798759353 620 203.79590357264507 666.0Q281.84292726935485 712 384.4272066863786 712Q488.7693670568332 712 566.9478243975573 666.0Q645.1262817382812 620 688.4940795898438 538.5Q731.8618774414062 457 731.8618774414062 350Q731.8618774414062 242.18389892578125 688.4940795898438 160.68389892578125Q645.1262817382812 79.18389892578125 566.9478243975573 33.591949462890625Q488.7693670568332 -12 384.4272066863786 -12ZM384.8389892578125 76.89581298828125Q458.1610107421875 76.89581298828125 513.4808687876506 109.74072265625Q568.8007268331137 142.58563232421875 599.239749402885 203.77545166015625Q629.6787719726562 264.96527099609375 629.6787719726562 350Q629.6787719726562 435.2186279296875 599.239749402885 496.3164978027344Q568.8007268331137 557.4143676757812 513.4808687876506 589.8512268066406Q458.1610107421875 622.2880859375 384.8389892578125 622.2880859375Q311.5095137591718 622.2880859375 256.47048025389654 589.8512268066406Q201.4314467486213 557.4143676757812 170.71532664579502 496.3164978027344Q139.99920654296875 435.2186279296875 139.99920654296875 350Q139.99920654296875 264.96527099609375 170.71532664579502 203.77545166015625Q201.4314467486213 142.58563232421875 256.47048025389654 109.74072265625Q311.5095137591718 76.89581298828125 384.8389892578125 76.89581298828125Z" transform="translate(338.440 149) scale(0.01800 -0.01800)" fill="#687b60"/>
<path d="M384.4272066863786 -12Q281.84292726935485 -12 203.79590357264507 33.591949462890625Q125.7488798759353 79.18389892578125 81.78249047507703 160.68389892578125Q37.81610107421875 242.18389892578125 37.81610107421875 350Q37.81610107421875 457 81.78249047507703 538.5Q125.7488798759353 620 203.79590357264507 666.0Q281.84292726935485 712 384.4272066863786 712Q488.7693670568332 712 566.9478243975573 666.0Q645.1262817382812 620 688.4940795898438 538.5Q731.8618774414062 457 731.8618774414062 350Q731.8618774414062 242.18389892578125 688.4940795898438 160.68389892578125Q645.1262817382812 79.18389892578125 566.9478243975573 33.591949462890625Q488.7693670568332 -12 384.4272066863786 -12ZM384.8389892578125 76.89581298828125Q458.1610107421875 76.89581298828125 513.4808687876506 109.74072265625Q568.8007268331137 142.58563232421875 599.239749402885 203.77545166015625Q629.6787719726562 264.96527099609375 629.6787719726562 350Q629.6787719726562 435.2186279296875 599.239749402885 496.3164978027344Q568.8007268331137 557.4143676757812 513.4808687876506 589.8512268066406Q458.1610107421875 622.2880859375 384.8389892578125 622.2880859375Q311.5095137591718 622.2880859375 256.47048025389654 589.8512268066406Q201.4314467486213 557.4143676757812 170.71532664579502 496.3164978027344Q139.99920654296875 435.2186279296875 139.99920654296875 350Q139.99920654296875 264.96527099609375 170.71532664579502 203.77545166015625Q201.4314467486213 142.58563232421875 256.47048025389654 109.74072265625Q311.5095137591718 76.89581298828125 384.8389892578125 76.89581298828125Z" transform="translate(357.500 149) scale(0.01800 -0.01800)" fill="#687b60"/>
<path d="M51.69830322265625 0V700H186.85260009765625L409.18922424316406 200.17718505859375H412.18922424316406L633.1917634423099 700H768.3526000976562V0H668.3533935546875V541.0903778076172H665.3533935546875L466.3413543701172 100H353.81590270996094L154.697509765625 540.9323272705078H151.697509765625V0Z" transform="translate(376.560 149) scale(0.01800 -0.01800)" fill="#687b60"/>
</svg>
